<?xml version="1.0" encoding="utf-8"?>
<!-- Generator: Adobe Illustrator 19.1.0, SVG Export Plug-In . SVG Version: 6.00 Build 0)  -->
<!DOCTYPE svg PUBLIC "-//W3C//DTD SVG 1.1//EN" "http://www.w3.org/Graphics/SVG/1.1/DTD/svg11.dtd">
<svg version="1.1" id="Layer_1" xmlns="http://www.w3.org/2000/svg" xmlns:xlink="http://www.w3.org/1999/xlink" x="0px" y="0px"
	 viewBox="0 0 576 360" style="enable-background:new 0 0 576 360;" xml:space="preserve">
<style type="text/css">
	.st0{fill:#48A8A3;}
	.st1{fill:#FFFFFF;}
</style>
<path class="st0" d="M712.1,247.7c0.5,8.4,1.1,16.8,1.7,25.9c1.8-18.3-0.7-35.7-2.3-53.1c-0.3,0.1-0.5,0.3-0.8,0.4
	c-0.9,0-2,0.4-2.5-0.1c-1.7-1.4-3.3-1.3-4.8,0c-3.7,2.9-7.7,3.4-11.9,1.4c-1.3-0.6-2.3-1.6-3.6-2.2c-1-0.6-2.2-0.8-3.3-1.3
	c-0.5-0.3-1.2-0.7-1.3-1.1c-0.1-0.5,0.4-1.4,0.8-1.5c4.2-1.6,7.2-4.9,10-8c4.2-4.6,7.5-10.1,11.7-14.8c4.1-4.5,1.9-9,1-13.7
	c-0.4-2.2-1.1-4.6-0.6-6.7c1.1-4.3-1.2-8-1.4-12.1c-0.1-1.9-0.6-3.9-1.2-5.8c-0.1,1.4-0.3,2.8-0.4,4.2c-0.3,0-0.7,0-1,0
	c0.2-3.1,0.3-6.2,0.5-9.3c0-0.5,0.5-1.2,0.3-1.4c-3.1-4.3-2.4-9.1-2.3-13.9c0-1-0.5-2-0.6-3.1c-0.1-1.3,0-2.6-0.1-3.9
	c-0.1-1-0.8-2-0.9-3c-0.3-3.4-0.3-6.7-0.6-10.1c-0.1-1.3-0.4-2.5-0.5-3.8c-0.2-1.5-1.1-1.7-2.1-0.9c-5.6,4.6-11,9.4-14.4,16.2
	c-2.5,5-5.3,10.1-9.1,14.2c-2.7,3-7.1,4.6-10.9,6.5c-3.8,1.9-7.4,0-11.1-0.9c-1.1-0.3-2.2-0.5-4-0.8c0.3-0.7,0.5-1.9,1.2-2.8
	c2.3-3,4.8-5.8,7-8.8c4.1-5.6,7.7-11.4,12.1-16.8c4-4.9,8.6-9.2,13.1-13.7c4.3-4.4,8.7-8.7,13.2-12.9c1.8-1.7,2.1-3.4,1.2-5.5
	c-0.7-1.6-0.4-2.3,1.5-2.5c6.4-0.8,12.5-2.6,18.3-5.8c4.3-2.4,9.4-3.5,14.3-4.9c5.1-1.5,10.2-2.9,15.4-4.1c3.1-0.7,6.3-1.2,9.4-1.4
	c6.7-0.5,13.4-1,20.1-0.9c6.5,0.1,12.7,1.8,18.4,5.3c1.9,1.2,2.8,4.6,1.9,6.6c-2.8,6.3-5.3,12.7-8.1,18.9c-3,6.7-6.1,13.3-9.2,19.9
	c-2.1,4.5-4.2,9.1-6.5,13.6c-3.7,7.1-7.6,14.1-11.2,21.3c-2,4.1-4.3,7.9-6.8,11.7c-4.4,6.4-7.8,13.5-11.9,20
	c-3.1,5-6.8,9.6-10.2,14.3c-2.4,3.4-4.2,6.8-3.7,11.3c0.6,6,0.6,12.1,1,18.2c0.5,6.6,1.4,13.3,1.7,19.9c0.2,5.6-0.3,11.1-0.5,16.7
	c0,0.8,0.1,1.6,0.1,2.4c0.1,7.6,0.2,15.1,0.2,22.7c0,4.6-2.4,6.5-6.3,5.8c-0.6-0.1-1.4,0.4-2,0.4c-0.8,0-1.6-0.1-2.3-0.3
	c-0.7-0.3-1.4-1.2-2-1.1c-3.1,0.3-3.4-1.6-3.4-4c0-6,0.2-12,0-18c-0.2-6.5-0.6-13-1-19.5c-0.1-1,0-2.1,0-3.1
	C711.4,247.6,711.8,247.6,712.1,247.7z M722,173c5.1-6.1,9.9-11,12.8-17.5c3.3-7.3,7.8-14,11.7-21c2.9-5.1,5.9-10.1,8.5-15.4
	c2.5-5.2,4.6-10.5,6.7-15.9c3.6-9,7-18,10.5-27c0.7-1.9-0.4-5.1-1.7-5.1c-2.4-0.1-4.8-0.1-7.1,0.3c-4.3,0.8-8.7,1.8-12.9,2.9
	c-5.1,1.4-10.2,2.6-15.1,4.6c-5.3,2.1-10.4,4.8-15.3,7.6c-2.7,1.5-5,3.7-4.6,7.4c0.2,1.7,0.7,3.3,0.8,5c0.2,5.1,0.2,10.2,0.3,15.3
	c0.1,2.8,0,5.6,0.3,8.4c0.5,4.9,1.7,9.8,1.8,14.7c0.1,6.8,0.8,13.4,2,20.1c0.7,3.9,2.4,7.9,0.6,12C720.8,170.1,721.6,171.3,722,173z
	"/>
<g>
	<path class="st0" d="M983.7,200c-5.3,2.5-10.6,5.1-15.9,7.6c-2.1,1-4.3,1.6-6.8,2.4c0.2-1.4,0.4-2.1,0.4-2.8
		c0-14.9,1-29.8,3.3-44.6c1.4-8.7,2.8-17.3,5.8-25.6c2.5-6.8,4.9-13.6,9.7-19.2c0.4-0.5,1.9-0.9,2.2-0.6c2.4,2.2,5.4,10.6,4,14.4
		c-0.7,2.2-1.2,4.4-1.7,6.1c2.6,0.9,5.1,1.5,7.4,2.5c3.8,1.7,7.3,4.2,11.8,3.6c2.1-0.3,3.4-1,2.8-3.5c-1.6-7.3-3.2-14.6-6.9-21.2
		c-3.8-6.9-9.7-10.4-17.2-11.2c-3.7-0.4-7.5,0-11.2,0c-2.7,0-4.8,0.9-5.9,3.7c-0.3,0.9-1.7,1.4-2.6,2c-0.6,0.4-1.7,0.5-2,1
		c-2.8,5.2-5.5,10.4-8.1,15.6c-0.2,0.4,0.2,1.1,0.3,2.1c0.9-1.1,1.5-1.9,2.1-2.7c-0.2,2.2-1,4.2-1.5,6.2c-1,3.9-1.9,7.8-2.8,11.7
		c-0.9,3.6-2.2,7.2-2.6,10.9c-0.7,5.6-0.8,11.2-1.2,16.8c-0.5,5.8-1.5,11.6-1.7,17.5c-0.4,8.9-0.2,17.8-0.4,26.6
		c0,0.9-0.5,2-1.2,2.6c-1.8,1.5-3.8,2.9-5.8,4.2c-3,1.9-6,3.7-9.6,5.9c3.2,1.5,5.5,2.8,8,3.7c1.4,0.5,3.4-0.2,4.5,0.6
		c0.9,0.7,0.8,2.7,1.2,4.1c0.6-0.8,0.5-1.7,0.8-2.5c0.2-0.8,0.7-1.5,1.1-2.3c0.4,0.8,1,1.5,1.1,2.3c0.3,4.3,0.4,8.7,0.7,13
		c0.4,6.3,0.8,12.7,1.4,19c0.3,3.8,0.7,7.6,1.4,11.3c0.3,1.4,1.7,2.5-0.7,3.3c-0.3,0.1-0.6,1.5-0.4,1.8c1.4,1.8,2.8,4,4.7,5
		c2.6,1.3,5.6,1.9,8.5,2.5c3.5,0.8,6-1.7,5.3-5.3c-0.7-3.7-1.8-7.4-2.1-11.2c-1-9.6-1.7-19.2-2.3-28.8c-0.4-6-0.4-12-0.5-18
		c0-2.3,0.1-4.3,2.6-6c7.7-5.1,15.2-10.6,23.1-16.2c0,0,0.8-3.8-0.3-6c-0.5-1-0.7-2.8-2.2-2.6C984.1,199.9,983.9,199.9,983.7,200z"
		/>
	<path class="st0" d="M1045.1,251.4c-0.2-3.7-1.6-7.3-2.8-10.9c-1.2-3.6-3.1-7.1-4.4-10.7c-2.6-7.1-5.8-13.8-10.9-19.5
		c-6.1-6.8-13.2-10.3-22.3-9c-2.5,0.3-5.1,1-7.2,2.3c-2.4,1.5-3.6,4.1-3.9,7.1c-0.3,2.1-0.7,4.5-1.9,6.2l-2.1,9.3
		c1.9,4.4,0.6,8.7,0.7,12.9c0.1,4.3,0.4,8.6,0.6,12.9c0.2,0,0.5,0,0.7,0c1.3-8.2-1.3-16.8,2.2-24.8c0.2,6.1,0.1,12.1,0.2,18.2
		c0,6.4,0.1,12.7,2.1,18.9c0.8,2.5,0.9,5.2,1.2,7.8c-0.4-0.3-0.9-0.6-1-0.9c-0.5-1.8-0.8-3.7-1.3-5.5c-0.7-2.2-1.5-4.4-2.3-6.6
		c-0.3,0.1-0.7,0.1-1,0.2c0.2,2.1,0.1,4.3,0.6,6.3c1.1,4.2,2.6,8.4,4.1,12.5c0.2,0.6,1.3,1,2,1.4c0.6,0.3,1.5,0.4,1.9,0.9
		c1.2,1.7,2.2,3.5,3.4,5.2c2.1,2.9,5.6,3.3,8.4,4.9c6.8,3.7,14.2,4.1,21.2,1.1c8-3.4,11.5-10.5,12-18.8
		C1045.6,265.6,1045.5,258.4,1045.1,251.4z M998.5,277.1c-0.5-0.4-1.3-0.8-1.3-1.2c-0.1-1.2,0.1-2.4,0.1-3.6
		c0.6,1.1,1.4,2.2,1.8,3.3C999.3,275.9,998.7,276.6,998.5,277.1z M1028,263.4c-0.7,3.9-1.1,7.8-1.8,11.7c-0.2,0.9-0.7,1.8-1.5,2.4
		c-0.5,0.3-1.2,0.4-1.5,0.8c-1,1.2-1.8,2.5-2.7,3.8c-1-1.2-2.3-2.2-2.9-3.5c-2.4-5.5-4.6-11-5.2-17c-0.5-5.2-1.5-10.3-2-15.5
		c-0.3-3-0.2-6.1,0-9.1c0.2-3.2,0.7-6.4,1-9.7c0.4-3.7,0.7-7.5,1-11.3c0.3-0.3,0.7-0.5,1-0.8c0.9,0.7,1.9,1.3,2.7,2.2
		c2,2.2,3.5,4.7,3.6,7.9c0,1.1,0.9,2.1,1.4,3.1c1.8,3.2,3.3,6.3,3.5,10.1c0.1,2.5,0.9,5.1,1.7,7.5
		C1028.4,251.8,1029,257.5,1028,263.4z"/>
</g>
<path class="st0" d="M1154.3,207.5c0.6,1.6,1.7,1.2,2.6,0c1.5,1.2,2.7,2.2,4,3.3c0.2,0.2,0.6,0.2,0.7,0.4c1.1,4.2,4.8,3.2,7.7,4
	c8.1,2.4,16.9,4,23.4,9.5c7.1,6,13.4,13.5,12.6,23.8c-0.5,5.9-1.7,11.9-3.1,17.7c-0.9,4-2.3,8-4.1,11.7c-2.2,4.5-6.7,6.6-10.9,9
	c-8.2,4.7-17,7.8-26.7,7.1c-4.7-0.3-9-1.8-13.3-4.4c-8.2-4.9-11.9-12.5-15.3-20.6c-2.9-6.9-2.5-14.1-1.7-21.3c0.7-6.5,1.7-13,4.5-19
	c1.8-3.8,3.6-7.6,5.7-11.2c0.5-0.9,2.1-1.4,3.2-1.8c1.9-0.6,4-0.9,4.3-3.5c0.1-0.5,0.8-1,1.3-1.4
	C1150.8,209.7,1152.5,208.6,1154.3,207.5z M1150.5,256c0.2,5.3,0.6,10.8,3.3,15.9c1.4,2.6,2.7,2.8,5.5,1.7c4.4-1.9,7.2-5.5,10.3-8.8
	c1.4-1.5,3.4-2.7,4.3-4.5c2.9-5.6,5.5-11.4,8.1-17.2c2.2-4.9,0.9-9.9-3.8-12.6c-5.8-3.4-11.9-6.2-17.9-9c-0.6-0.3-2.3,0.5-2.6,1.2
	c-1.2,2.7-2,5.5-2.9,8.3C1152.1,238.9,1150.8,247.2,1150.5,256z"/>
<path class="st0" d="M801.5,194.4c2.8,2.1,3.4-1.1,5-1.8c-0.5-0.7-0.9-1.5-1.6-1.9c-1-0.5-2.2-0.6-3.2-1.1c-0.6-0.3-1.4-1.1-1.4-1.7
	c0-0.6,0.8-1.4,1.5-1.7c4.7-1.9,9.4-4,14.3-5.3c7.3-2.1,14.9-3.5,22.5-3.2c2.8,0.1,5.6,1.3,8.4,1.8c2.4,0.4,4.8,0.5,6.4,2.8
	c1.2,1.8,1.6,3.4,0.5,5.5c-2.6,5.1-4.8,10.3-7.5,15.4c-3.9,7.2-8,14.4-12.1,21.5c-3.1,5.4-6.5,10.7-9.6,16.1
	c-0.5,0.8-0.5,1.9-0.7,2.8c0.9,0,1.9-0.1,2.8-0.1c5.3-0.1,10.6-0.3,15.9-0.2c4.1,0.1,8.1,0.7,12.2,0.8c2.9,0.1,5.7-0.5,8.6-0.6
	c1.2,0,2.4,0.7,3.6,0.6c1.8-0.1,3.7-0.6,5.5-1c0.6-0.1,1.1-0.9,1.6-0.8c2.6,0.4,5.5,0.4,7.8,1.5c3.7,1.7,4.3,7.8-0.6,10.4
	c-4.7,2.5-9.7,2.7-15.1,1.5c-4.9-1-10-2.6-15.2-0.8c-2.1,0.7-4.7,0.5-7.1,0.4c-6.2-0.3-12.5-0.7-18.7-1c-2.9-0.1-3.5,0.9-2.8,3.7
	c0.1,0.4,0.3,0.9,0.4,1.3c1.5,9.4,3,18.8,4.4,28.2c0.2,1.3-0.6,2.8-1,4.2c-0.1,0.3-0.7,0.8-0.9,0.7c-2.6-0.8-5.6,0.5-8.1-1.6
	c-0.8-0.6-2.3-0.2-3.4-0.7c-0.9-0.4-2-1.2-2.3-2.1c-1.1-3-2-6.1-2.6-9.3c-0.6-2.6-0.6-5.3-1.1-8c-0.4-2.3-1.1-4.5-1.4-6.8
	c-0.5-3.6-0.7-7.3-1.4-10.9c-0.1-0.8-1.3-1.7-2.2-2.1c-3.5-1.5-3.6-1.6-1.3-4.5c2.1-2.6,1.6-5.5,1.3-8.3c-0.2-1.9-0.5-3.8-0.6-5.7
	c-0.4-7.6-0.8-15.2-1.2-22.9c-0.2-4.9-0.3-9.9-0.5-14.8C800.9,194.7,801.2,194.6,801.5,194.4z M832.7,185
	c-6.6,2.5-12.6,4.7-18.6,6.9c0.3,0.9,0.4,1.6,0.7,1.8c2.5,1.2,2.7,3.3,2.8,5.7c0.3,6.8,0.7,13.6,1.2,20.4c0,0.5,0.6,1,0.9,1.5
	c0.5-0.3,1-0.6,1.3-1c1.2-1.8,2.2-3.7,3.3-5.6c2.4-4.1,5-8,7-12.3c1.9-4.2,3.2-8.7,2.6-13.4C833.8,187.8,833.2,186.6,832.7,185z"/>
<path class="st0" d="M895.5,227.7c0.2-3,0.5-5.9,0.8-9.6c-2.5,0.3-4.9,0.6-7.3,0.8c-4.6,0.3-9.2,0.4-13.8,0.6c-0.5,0-0.9-0.8-1.4-1
	c-1.5-0.7-3-1.3-4.4-2.1c-0.6-0.3-1.6-1-1.5-1.4c0.1-0.6,0.8-1.5,1.4-1.7c1.8-0.5,3.7-1,5.5-1.2c5.5-0.4,10.2-3,15.2-4.8
	c3.3-1.2,4.2-3.1,4-6.5c-0.6-9.7-1-19.4-1-29.1c0-14,0.3-28,0.5-42.1c0.1-4.9,0.1-9.8,0.4-14.7c0.1-2,1-3.9,1.3-5.2
	c2.2,0.1,3.8,0.2,5.5,0.2c1.7,0.1,3.4,0,5.1,0.1c2.6,0.1,3.7,1.7,3.8,4.1c0.1,2.5,0,4.9,0.1,7.4c0.3,11.8,0.7,23.6,0.8,35.4
	c0.2,10.9,0.1,21.9,0.2,32.8c0,2.5,0.4,5.1,0.6,7.6c0.1,1.6,0.9,1.9,2.2,1.5c1.6-0.5,3.2-1.3,4.9-1.5c3-0.4,6.1-0.8,9.1-0.5
	c2.7,0.3,3.3,3.1,1.1,5.1c-1.5,1.3-3.4,2.4-5.2,3.3c-3.5,1.7-7.2,3-10.6,4.8c-0.8,0.4-1.1,2.4-1.1,3.6c0.2,8.8,0.7,17.6,0.9,26.5
	c0.2,9.7-0.1,19.3,0.3,29c0.3,7.1-0.6,13.9-2.4,20.7c-0.5,1.7-1,3.3-4.1,2.7c-2.4-0.5-4.9-0.5-7.2-1.6c-2.7-1.3-3-2.6-1.7-5.3
	c0.5-0.9,0.3-2.2,0.3-3.3c0-0.4-0.4-0.9-0.3-1.3c0.7-3.6,0.3-7.4,0-10.8c-0.4-4.3-0.1-8.6-0.7-12.7c-1-6.7-0.2-13.2-0.7-19.8
	c-0.2-2.2,0.4-4.4,0.5-6.6c0-1.2-0.4-2.3-0.6-3.5C895.7,227.7,895.6,227.7,895.5,227.7z"/>
<path class="st0" d="M1063.1,289.8c0.3-1.7,0.7-2.7,0.6-3.6c-2.1-12.9-3-25.8-2.9-38.9c0.1-7.6-0.8-15.3-1.1-22.9
	c-0.2-4.5-0.1-8.9-0.2-13.4c-0.1-4.9-0.1-9.8-0.2-14.7c-0.2-15.3-0.4-30.6-0.7-45.9c-0.1-4.4-0.5-8.9-0.7-13.3c-0.1-2,0.1-4,0.4-6
	c0.4-2.2,0.6-4.3-0.9-6.2c-0.4-0.5-0.7-1.3-0.6-2c0.2-2.6,0.4-5.2,0.8-7.8c0.5-2.8,0.7-5.8,3.1-7.8c1.2-1.1,2.4-2.1,4.3-1
	c0.6,0.4,1.6,0.4,2.4,0.2c5.2-1,9,1.9,8.9,7.2c-0.2,9.5-1.1,18.9-1.1,28.4c0.2,22.7,0.7,45.4,1.2,68.1c0.2,10.2,0.7,20.5,1.1,30.7
	c0.2,7,0.5,14,0.7,21c0.1,4.2,0,8.3,0.2,12.5c0.3,5.2,0.9,10.3,1.1,15.5c0.1,1.6-0.3,3.8-1.3,4.6c-0.9,0.7-3-0.1-4.6-0.2
	c-0.4,0-0.9-0.4-1.3-0.4C1068,294.4,1065.4,291.6,1063.1,289.8z"/>
<path class="st0" d="M743,243.8c0,4.9,0,9.8,0,14.7c-0.1,0-0.3,0.1-0.4,0.1c-0.1-0.3-0.4-0.7-0.4-1c-0.2-5.9-0.4-11.8-0.6-17.7
	c-0.1-3.2-0.1-6.4,0-9.6c0.3-5.4,0.7-10.7,1.1-16.1c0.2-2.7,0-5.5,0.6-8.2c1.2-5.6,4.5-8,10.2-8.1c1.9,0,3.8-0.5,5.6-0.5
	c3.3-0.1,6.9-0.7,9.4,2.2s5.4,5.8,6.8,9.2c3.1,7.6,5.9,15.5,7.9,23.5c1.7,6.6,2.3,13.4,3.2,20.2c0.4,2.9,0.6,6,0.5,8.9
	c-0.1,3-0.6,6.1-1,9.1c-0.6,4.2-1.5,8.3-2.2,12.4c-0.9,5.6-8.5,9.9-12.7,10.2c-6.3,0.5-11.4-2.1-16.7-5c-3.8-2.1-4.9-5.5-5.7-9.2
	c-0.7-3.7-1.6-7.3-2.2-11c-0.7-4.2-1.1-8.4-1.6-12.5c-0.5-3.9-1-7.8-1.5-11.6C743.3,243.7,743.2,243.7,743,243.8z M769.6,267.4
	c-0.2,0-0.4-0.1-0.6-0.1c0.2-1.1,0.2-2.3,0.5-3.4c0.6-2.1,1.6-4.1,1.9-6.2c0.4-3.6,0.8-7.3,0.4-10.9c-0.6-5.8-1.6-11.5-2.7-17.2
	c-0.8-3.8-2.1-7.5-3.2-11.3c-0.2-0.6-0.8-1.6-1.2-1.6c-1.9-0.1-2.2-1.5-2.7-2.7c-0.5-1-1.1-1.9-1.9-3.1c-0.4,0.6-0.7,1-0.7,1.4
	c-0.4,5.6-1.2,11.2-1,16.8c0.2,9.6,0.9,19.2,1.6,28.7c0.5,6.4,1.3,12.7,2.2,19c0.3,2,0.3,4.9,3.6,5.4c0.9-2.8,1.8-5.6,2.8-8.5
	c0.1-1.4,0.2-3.1,0.3-5.7c0.8,1.1,1.1,1.5,1.5,2.1c0.5-2.9,0.9-5.5,1.3-8.1c-0.2,0-0.4-0.1-0.7-0.1
	C770.4,263.7,770,265.6,769.6,267.4z"/>
<path class="st0" d="M1114,232c0,7-0.3,14.1,0.1,21.1c0.4,9,1.2,18,2.2,26.9c0.3,2.8,1.6,5.6,2.5,8.4c0.7,2.1-0.6,4.5-2.8,4.6
	c-4.5,0.1-8.8-0.8-12.4-3.4c-1.7-1.2-2.5-3.6-3.8-5.4c-2.7-3.8-2-8.4-2.7-12.6c-2.6-16.2-1.6-32.6-1.6-48.9c0-6,0.7-11.9,1-17.9
	c0.2-2.5,2-3.6,4.5-3.4c1.9,0.2,4-0.5,5.9-0.2c2,0.3,4,1.1,5.7,2.2c0.8,0.5,1.4,2.1,1.4,3.2C1114.1,215,1114,223.5,1114,232z"/>
<path class="st0" d="M1093.3,225.9c0,9.5,0,18.7,0,27.9C1091.9,252.2,1091.8,231.9,1093.3,225.9z"/>
<path class="st0" d="M946.1,155.4c0.9-7.2,2.4-14.3,4.8-21.2c0.2,0.1,0.5,0.1,0.7,0.2c-1.6,7-3.2,14.1-4.8,21.1
	C946.6,155.5,946.4,155.4,946.1,155.4z"/>
<path class="st0" d="M705.3,171.9c0,2.6,0,5.2,0,7.7c-0.6-2.6-2.7-5-0.9-7.7C704.8,171.9,705.1,171.9,705.3,171.9z"/>
<path class="st0" d="M943.1,174.3c0.4-2.4,0.9-4.9,1.3-7.3c0.3,0,0.6,0.1,0.9,0.1c-0.4,2.4-0.8,4.9-1.2,7.3
	C943.7,174.4,943.4,174.3,943.1,174.3z"/>
<path class="st0" d="M704.4,162.7c0,2.1,0,3.8,0,5.6C702.3,165.7,702.3,164.3,704.4,162.7z"/>
<path class="st0" d="M769.3,241c-1.9-7.7-3.9-15.4-5.8-23c0.3-0.1,0.6-0.1,0.9-0.2c1.9,7.7,3.9,15.4,5.8,23
	C769.9,240.9,769.6,241,769.3,241z"/>
<path class="st1" d="M326.6,162.5c-2.3-0.8-5-1.7-7.3-1.2c-3.2,0.6-6.2,2.2-9.1,3.8c-5.6,3-11.1,6.3-17,9.8c-0.1-1.2-0.3-2-0.2-2.8
	c0.3-9.2,0.8-18.4,1-27.6c0.2-5.9-0.2-11.8,0.1-17.7c0.6-10.2,1.5-20.3,2.4-30.4c0.5-5.2,1.1-10.5,1.8-15.7c0.3-2.3-2.2-8.1-4.4-8.7
	c-2.8-0.7-5.8-1-8.7-1.4c-2.6-0.4-3.5,1-3.7,3.3c-0.1,0.8-0.6,1.6-0.7,2.4c-0.4,2.9-2.5,5.7-0.6,8.9c0.5,0.8,0.2,2.1,0.1,3.1
	c-0.3,2.6-0.7,5.3-1.2,7.9c-0.2,0.9-0.9,1.6-1.3,2.3c0,2.7,0.1,5.2,0,7.7c-1,16.7-2.1,33.4-3.2,50.1c-0.1,2.1-0.2,4.2-0.2,6.3
	c-0.2,7.1-0.6,14.2-0.3,21.3c0.1,2.7-0.6,4.3-2.6,5.6c-1.2,0.8-2.4,1.4-3.6,2.1c-2.6,1.3-5.3,2.7-8,3.8c0,0-0.7,4-0.1,5.1
	c0.6,1,1.9,1.7,2.9,1.8c3,0.2,6.1,0.1,9.1,0c1.8-0.1,2.6,0.5,2.6,2.4c0.2,7.8,0.6,15.6,0.8,23.4c0.2,9.8,0.4,19.5,0.5,29.3
	c0,5.7-0.2,11.4-0.2,17c0,0.8,0.8,2,1.5,2.2c1.9,0.6,4,1.5,5.8,1.1c2.3-0.5,5.6-1.5,6.4-3.2c1.2-2.7,0.7-6.2,0.9-9.4
	c0-0.6-0.3-1.3-0.2-1.9c0.6-4.1,1.5-8.2,1.8-12.3c0.3-3.6,0-7.2,0.1-10.9c0.1-14.2,0.2-28.3,0.4-42.5c0-1.5,1-3.2,2.1-4.3
	c2.2-2.1,4.8-3.8,7.2-5.6c5.5-4,11.2-7.8,16.5-12.1c3.2-2.5,6-5.6,8.6-8.7C327.4,165.8,327.1,162.7,326.6,162.5z"/>
<path class="st1" d="M482.1,189.9c-1.7-2.7-4.5-4.5-8.7-2.8c-2.3,1-3.7,1.6-4.3,4c-0.3,1.3-1,2.5-1.6,3.6c-1.4,2.6-0.5,6-3,8.1
	c-0.1,0,0,0.2,0,0.3c-0.1,1.5-0.1,3-0.2,4.6c-0.1,3.3,0.8,6.8-2.1,9.6c-0.4,0.4-0.8,1.5-0.5,2c0.8,1.5,0.4,2.2-1.1,2.7
	c-0.4,0.1-0.9,0.8-1,1.3c-1.3,3.7-2.4,7.5-3.7,11.3c-1.3,3.7-2.5,7.5-4.2,11.1c-2.4,5.4-5.4,10.5-7.7,15.9c-1.5,3.4-4,5.1-7.1,6.6
	c-0.4,0.2-1.2,0-1.6-0.3c-4.6-3.8-7.9-8.6-10.8-13.7c-1.8-3.3-3-7-3.8-10.7c-1.4-6.3-2.8-12.7-3.2-19.1c-0.5-8.6-0.4-17.4,0-26
	c0.3-6.7,1.5-13.3,2.5-20c0.4-2.3,1.5-4.5,2.3-6.9c0.7,0.5,1.1,0.7,1.1,0.8c-0.7,3.3,1.6,3.3,3.8,3.9c1.5,0.4,2.6,1.9,4.1,2.3
	c2.5,0.6,5.2,1.1,7.7,1c2.2-0.1,4.7-0.5,6.4-1.7c0.7-0.5-0.2-3.4-0.4-5.2c-0.1-1-0.1-2.1-0.2-3.1c-0.1-0.9-0.3-1.9-0.7-2.7
	c-5.5-9.2-13.9-13.7-24.2-14.7c-3.6-0.4-7.3-0.1-10.9,0.2c-1.1,0.1-2.2,0.9-3.1,1.5c-1.1,0.8-2,1.8-2.9,2.6c0.2,1.2,0.7,2.7,0.5,4
	c-1,5.1-2.1,10.2-3.5,15.2c-2.7,10-3.4,20.3-3.6,30.5c-0.2,8.3,1,16.6,1.4,24.9c0.4,8.9,2.9,17.1,7.1,24.9
	c4.3,8,10.2,14.6,18.3,18.6c9,4.4,18.6,5.1,28.4,2.6c5.8-1.5,10-5.1,13.3-9.9c4.5-6.4,5.7-14.1,8.3-21.3c2.3-6.5,4.2-13.3,6.1-20
	c0.5-1.6,0.5-3.3,0.8-5c0.7-3.9,1.3-7.8,2-11.7c0.5-2.9,1.3-5.8,1.5-9.1C483.9,197.4,483.4,192.1,482.1,189.9z"/>
<path class="st1" d="M570,180.1c-1.5-1.4-3.1-3.4-4.8-3.6c-5.3-0.5-10.8-1.5-16,1.5c-3.4,2-7.1,3.7-10.8,5.1
	c-4.6,1.7-9.4,3.1-14.1,4.3c-1.5,0.4-4.1,1.2-4.4-1.5c-0.6-4.1-0.8-8.3-0.9-12.5c0-4.5,0.5-8.9,0.6-13.4c0.1-11.8-0.1-23.7,0.2-35.5
	c0.1-5.3,0.9-10.6,1.3-15.9c0.2-2.4,0.4-4.9-2.4-6.3c-1.9-0.9-3.7-2.1-5.6-3.1c-0.8-0.4-1.8-0.6-2.7-0.7c-2.8-0.3-5.8-0.3-8.5-0.9
	c-2.9-0.7-3.9-0.2-4,2.8c-0.1,2.1,0.3,4.4-0.5,6.2c-1.5,3.5-0.8,7-0.6,10.5c0.1,1.1,0.6,2.3,0.5,3.4c-0.1,8.3-0.3,16.6-0.4,24.8
	c-0.1,14.5,0,29-0.1,43.5c0,1,0.1,2.2-0.4,3c-1,1.6-6.4-0.5-8.2,0.6c-2.2,1.3-1.3,8.8,1.7,10.1c0.2,0.1,1.1-0.1,2.1,0
	c4.9,0.5,5,0.5,4.9,5.5c-0.3,19.1,0,38.2,2.3,57.2c0.4,3.3,0.5,7.1,3.5,9.3c4.1,2.9,8.9,3.9,13.9,3.6c2.2-0.1,3.5-1.2,3.4-3.6
	c-0.3-4.3-0.6-8.6-0.7-12.8c-0.4-11.3-0.7-22.6-1-34c0-1-0.1-2.3,0.5-3c1.1-1.6,1.1-3.1,0.4-4.8c-0.3-0.8-0.4-1.7-0.3-2.5
	c0.3-4.5,0.7-9,1.1-13.6c0.4-3.8,1.1-4.3,5-4.8c5-0.7,10-1.2,14.8-2.5c5.6-1.4,11-3.6,16.5-5.5c5.3-1.8,9.5-5.3,13.6-9
	C570.1,181.8,570.3,180.4,570,180.1z"/>
<path class="st1" d="M61.5,67.9c-2.7-5.2-5-9.8-7.6-14.3c-0.9-1.7-2.6-1.4-3.7,0.4c-3.7,6.2-6.5,12.7-8.6,19.5
	c-2,6.6-4.3,13.2-5.9,19.9c-1.7,6.9-2.8,14-4,21c-1.5,8.9-2.8,17.8-4.1,26.7c-0.7,4.8-1.6,9.7-2.1,14.5c-0.7,7.6-1.2,15.1-1.6,22.7
	c-0.5,8.7-1,17.3-1.2,26c-0.2,8.3-0.4,16.7,0.1,25c0.4,7,0.8,14.2,3,20.8c2.5,7.2,6.4,14.2,13.8,18.8c4.1,2.5,7.1,2.3,10.9-0.7
	c1.4-1.1,3-2.1,4.7-3c6.4-3.3,9.3-9.2,12.4-14.8c3.2-5.8,5.7-12.1,9.5-17.6c2.4-3.5,4-7,4.5-11c0.2-1.8,0-3.6,0-5.4
	c7.1-2.3,14.1-2.4,21.2-0.6c1.8,0.5,2.1,1.3,1.6,2.7c-1,2.4-2,4.9-3,7.3c-3.8,8.7-7.3,17.4-11.5,25.9c-2.1,4.2-5.5,7.8-8.2,11.7
	c-3.5,5.1-9,8-14.7,10.3c-3.4,1.4-7.2,1.9-10.8,2.8c-1.7,0.4-3.4,0.7-5.2,0.8c-11.3,0.7-22.1-0.5-30.6-8.2
	c-3.8-3.5-6.8-7.9-9.7-12.2c-1.1-1.6-1.3-4-1.4-6c-0.3-7.8-2.5-15.5-1.5-23.5c0.5-4-0.8-8.1-0.9-12.1c-0.1-2.6,0.3-5.3,0.4-7.9
	c0.6-12.2,1.2-24.3,1.8-36.5c0.4-6.8,0.7-13.7,1.4-20.5c0.9-8.7,2.4-17.3,3.4-25.9c0.7-5.5,1-11.1,1.5-16.6c0.1-0.6-0.1-1.2,0.2-1.7
	c2.2-3.4,2.8-7.2,3.2-11.1c0.6-5.2,1.5-10.3,2.8-15.4c1.3-5,3.9-9.7,4.6-14.7c0.8-5.2,4.1-9.5,5.3-14.4c1.3-5,4.9-7.1,9.6-7.6
	c8.3-0.9,16.4-0.2,23.6,4.2c4.9,3,8.8,6.9,11,12c1.5,3.4,3.1,6.7,4.7,10c0.9,1.9,0.2,3.3-1.9,3.2c-3.3-0.2-6.5-0.5-9.7-1.1
	c-1-0.2-1.6-1.7-2.6-2.1C64.7,68.7,62.7,68.3,61.5,67.9z"/>
<path class="st1" d="M363.4,222.4c-0.9,0.5-1.8,1-2.6,1.6c-6,4.3-11.9,8.5-17.8,12.8c-0.3,0.2-0.5,0.8-0.6,1.2c-0.2,0.6,0,1.4-0.4,2
	c-3.4,5.6-1.7,11.7-2.3,17.6c-0.4,4.3-0.7,8.5-1.2,12.8c-0.5,4.1-4.6,7.4-8.7,7.6c-2.9,0.1-5.9,0.4-8.8,0.2
	c-1.3-0.1-2.6-0.9-3.8-1.5c-1.9-1.1-3.8-2.3-6.1-3.8c4.3-2.1,5.7-5,6-9.1c0.4-5.8,1.4-11.5,3.7-17c1.1-2.5,0.7-5.8,0.5-8.8
	c0-0.8-1.9-1.4-3.2-2.3c0.8-0.8,1.9-1.6,2.7-2.6c1.1-1.4,2.5-2.9,2.8-4.5c1.6-8,2.7-16.2,4.4-24.2c2.1-9.7,4.5-19.4,6.9-29.1
	c1.1-4.3,2.3-8.5,3.8-12.7c1.1-3,3.3-5.1,6.9-5.2c2-0.1,3.9-0.9,5.9-0.9c5-0.1,9.9,0.8,14,3.6c2.3,1.6,4.2,4.6,5.1,7.4
	c1.8,5.4,2.8,11.1,4.1,16.7c0.4,1.6,0.4,3.2,0.5,4.8c0.3,2.6,2,3.5,4.4,2.7c1-0.3,2.2-0.4,3.2-0.1c1.9,0.6,3.9-0.5,5.9,0.9
	c1.6,1.2,1.7,1.9,0.7,3.3c-2,2.8-3.9,5.7-6.2,8.3c-1.9,2.2-2.8,4.5-2.2,7.5c0.8,4.2,1.3,8.4,2,12.6c0.8,4.8,1.8,9.6,2.4,14.5
	c0.3,2.7,5.5,31.5,5.3,34.2c-0.4,4.7-6.3,6.7-9.9,5.1c-0.6-0.3-1.2-0.6-1.8-0.6c-1.9,0.1-2.6-1.1-3-2.7c-2.3-8.6-9.8-43.1-12.1-51.7
	C364,222.9,363.8,222.8,363.4,222.4z M352,185.7c-0.3-0.1-0.6-0.2-0.9-0.3c-2.6,9.7-3.5,19.8-6,29.7c3.8-1.6,6.9-3.8,10.2-5.6
	c3.4-1.9,3.7-4.4,2.5-7.7C355.7,196.5,353.9,191.1,352,185.7z"/>
<path class="st1" d="M145.8,278.4c-9.7-0.5-17.9-3.7-23.7-11.4c-3.7-5-4.8-10.9-5.1-16.9c-0.2-4.3-0.7-8.6-0.5-12.8
	c0.2-5.8,0.9-11.7,1.5-17.5c0.5-4.9,1.2-9.7,1.9-14.5c0.9-6.3,1.9-12.6,3-18.9c0.8-4.5,1.9-9,2.6-13.5c0.2-1.4-0.6-3-0.4-4.4
	c0.3-2.1,1-4.1,1.6-6.1c1.5-4.8,5.9-4,9.5-4.9c3.8-1.1,7.3,0.4,10.9,1.3c2.3,0.6,2.5,2.3,1.7,4.5c-1.1,3-1.8,6.3-2.6,9.4
	c-0.7,2.7,0.9,3.8,3.2,4.2c4.3,0.6,7.1,3.1,9.3,6.6c2.3,3.7,5.2,7.1,6,11.6c0.1,0.6,0.3,1.1,0.3,1.6c1.5,19.5,2.3,39.1,1.6,58.6
	c-0.2,4.9-1.3,9.9-2.9,14.5c-1.5,4.4-5.4,6.9-10.1,7.7C151.1,278.1,148.3,278.2,145.8,278.4z M142.8,264.6c0.4-2.9,0.6-5.7,1.3-8.3
	c0.9-3.5,0.2-7.4,3.1-10.3c0.5-0.5,0.2-2,0-3c-0.2-1.1-0.9-2.2-0.8-3.3c0.2-2.2,1.1-4.5,1-6.6c-0.3-3.3-0.7-6.5,0.7-9.7
	c0.1-0.3,0-0.8,0-1.1c-0.4-3.3-0.9-6.6-1.1-9.9c-0.2-2.7,0-5.4,0-8.1c0-1.2-0.3-2.5-0.6-3.7c-0.8-3-1.6-6-2.5-9.1
	c0-0.1-0.4-0.2-1-0.4c-0.6,2.9-1.4,5.6-1.7,8.3c-0.9,6.7-1.7,13.4-2.3,20.2c-0.7,7.4-1.4,14.9-1.6,22.3c-0.1,5.1,0.6,10.2,1,15.3
	C138.5,260.3,139.4,263,142.8,264.6z"/>
<path class="st1" d="M494.4,126.6c0,21.3,0,41.8,0,62.4C492.9,185.5,492.8,140,494.4,126.6z"/>
<path class="st1" d="M326.1,200.4c-1.7,9.8-3.4,19.2-5.1,28.7C319.9,227.3,323.6,206.3,326.1,200.4z"/>
<path class="st1" d="M116.8,210.4c0.5-2.5,0.9-5.1,1.4-7.6c0.3,0,0.6,0.1,0.9,0.1c-0.4,2.5-0.9,5.1-1.3,7.6
	C117.5,210.5,117.1,210.5,116.8,210.4z"/>
<path class="st1" d="M117.4,199.1c1-7.5,2.5-14.9,5-22.1c0.3,0.1,0.5,0.1,0.8,0.2c-1.7,7.4-3.4,14.7-5.1,22.1
	C117.9,199.2,117.6,199.1,117.4,199.1z"/>
<path class="st1" d="M327.1,196.8c0.5-2.5,0.9-5.1,1.4-7.6c0.3,0,0.6,0.1,0.9,0.1c-0.4,2.5-0.9,5.1-1.3,7.6
	C327.8,196.9,327.5,196.8,327.1,196.8z"/>
<g>
	<path class="st1" d="M257.8,131.8c-2.8-2.7-6.7-3.8-9.9-2.3c-2.3,1.1-3.9,4.3-5.2,6.9c-1.1,2.2-1.5,4.8-2.1,7.3
		c-0.8,3.7-1.8,7.3-2.2,11c-0.4,3.8,0.2,7.8-0.1,11.6c-0.7,9.6-1.7,19.2-2.6,28.8c-0.5,5.9-1,11.9-1.5,17.9
		c-0.4,5.3-0.8,10.6-1.3,15.9c-0.1,0.7-0.8,1.6-1.4,1.9c-0.4,0.2-1.5-0.3-1.8-0.9c-1.2-1.6-2.4-3.3-3.2-5.1c-2.1-4.6-3.6-9.5-6-13.9
		c-4.6-8.2-5.9-17.4-8.7-26.2c-1.6-5-1.8-10.6-2.2-15.9c-0.2-2.8-2.2-5-5.1-5.6c-4-0.7-8.2-1.9-12.3,0.6c0,0.3-0.3,0.8-0.2,1.2
		c1.1,4.2-0.7,6.6-4.5,8.3c-2.2,1-2.9,4.6-2.1,6.8c0.5,1.4,1.1,3,1,4.5c-0.6,6.3-1.8,12.5-2,18.7c-0.4,11.7-0.3,23.5-0.4,35.2
		c0,2.4-0.6,4.7-0.7,7.1c-0.1,4,1.1,8-0.1,12c-0.1,0.2,0.1,0.5,0.2,0.8c0.3,1.4,0.8,2.9,0.9,4.3c0.2,2.6,0,5.2,0.3,7.7
		c0.3,2,0.5,5,1.8,5.7c2.8,1.5,5.8,3.7,9.3,2.8c1.8-0.4,4.4-1.6,4.8-2.9c0.8-2.5,1.5-5.1,1.3-8.2c-0.8-9.5-0.5-19.2-0.7-28.8
		c0-2.2-0.1-4.4-0.2-6.6c-0.2-3.9-0.5-7.7-0.6-11.6c0-0.4,0.5-1.1,0.8-1.2c0.3-0.1,1.1,0.3,1.3,0.6c2.8,4.9,5.3,9.9,8.3,14.7
		c2.7,4.3,6,8.2,8.6,12.5c3.9,6.6,7.2,13.6,10.9,20.3c1,1.9,2.1,4.6,3.6,5c2.4,0.6,3.9,3.1,7,2.3c2.6-0.7,5.6,0.4,8.4,0.4
		c3.2-0.1,4.4-2,3.4-5c-0.3-0.8-0.7-1.6-0.8-2.4c-0.5-6.2-1.1-12.3-1.2-18.5c-0.2-11.7-0.1-23.4,0.1-35.2c0-3.7,0.6-7.3,0.9-11
		c0-0.5-0.2-2.7,0.1-2.7l0.1-4.2c-0.1-2.5,0-4.9,0.2-7.4c0.6-7.2,1.2-14.3,1.9-21.5c0.4-3.7,1-7.3,1.5-10.9
		c0.7-5.9,1.4-11.8,2.1-17.7c0.2-1.3,0.7-2.5,0.7-3.8C258.3,134.3,258.5,132.5,257.8,131.8z"/>
	<path class="st1" d="M185.8,275.2c-3.3,0.4-3.6-1.6-3.6-4.1c-0.1-6.3-0.2-12.6-0.5-18.9c-0.4-6.8-1-13.5-1.5-20.3
		c-0.1-1.1-0.1-2.2-0.1-3.3c0.3,0,0.7,0,1,0c0.8,8.8,1.6,17.5,2.4,27"/>
</g>
</svg>
